<mxfile host="app.diagrams.net" modified="2020-11-30T08:47:02.881Z" agent="5.0 (Windows NT 6.1; Win64; x64) AppleWebKit/537.36 (KHTML, like Gecko) Chrome/87.0.4280.66 Safari/537.36" etag="7wk7LK-Lf9ataNRfipYh" version="13.10.4" type="github">
  <diagram id="v8FIyj6-tNv1zjd0D3WM" name="Page-1">
    <mxGraphModel dx="1038" dy="1749" grid="1" gridSize="10" guides="1" tooltips="1" connect="1" arrows="1" fold="1" page="1" pageScale="1" pageWidth="827" pageHeight="1169" math="0" shadow="0">
      <root>
        <mxCell id="0" />
        <mxCell id="1" parent="0" />
        <mxCell id="kvXipWGZ7Jy9fMiuD0g3-35" value="" style="rounded=1;whiteSpace=wrap;html=1;fontSize=17;fillColor=#ffe6cc;strokeColor=#d79b00;" parent="1" vertex="1">
          <mxGeometry x="655" y="170" width="240" height="370" as="geometry" />
        </mxCell>
        <mxCell id="kvXipWGZ7Jy9fMiuD0g3-33" value="" style="rounded=1;whiteSpace=wrap;html=1;fontSize=17;fillColor=#ffe6cc;strokeColor=#d79b00;" parent="1" vertex="1">
          <mxGeometry x="190" y="180" width="300" height="360" as="geometry" />
        </mxCell>
        <mxCell id="kvXipWGZ7Jy9fMiuD0g3-2" value="登录服务" style="rounded=0;whiteSpace=wrap;html=1;" parent="1" vertex="1">
          <mxGeometry x="260" y="460" width="200" height="60" as="geometry" />
        </mxCell>
        <mxCell id="kvXipWGZ7Jy9fMiuD0g3-30" value="8. create user" style="edgeStyle=orthogonalEdgeStyle;rounded=0;orthogonalLoop=1;jettySize=auto;html=1;startArrow=none;startFill=0;endArrow=classic;endFill=1;fontSize=17;" parent="1" source="kvXipWGZ7Jy9fMiuD0g3-3" edge="1">
          <mxGeometry relative="1" as="geometry">
            <mxPoint x="740" y="460" as="targetPoint" />
          </mxGeometry>
        </mxCell>
        <mxCell id="kvXipWGZ7Jy9fMiuD0g3-3" value="轻空间服务" style="rounded=0;whiteSpace=wrap;html=1;" parent="1" vertex="1">
          <mxGeometry x="680" y="200" width="120" height="190" as="geometry" />
        </mxCell>
        <mxCell id="kvXipWGZ7Jy9fMiuD0g3-6" value="钉钉服务" style="ellipse;shape=cloud;whiteSpace=wrap;html=1;fillColor=#dae8fc;strokeColor=#6c8ebf;" parent="1" vertex="1">
          <mxGeometry x="370" y="-80" width="290" height="100" as="geometry" />
        </mxCell>
        <mxCell id="kvXipWGZ7Jy9fMiuD0g3-9" value="3. url+uuid" style="endArrow=classic;html=1;fontSize=16;" parent="1" edge="1">
          <mxGeometry x="0.0909" width="50" height="50" relative="1" as="geometry">
            <mxPoint x="290" y="200" as="sourcePoint" />
            <mxPoint x="410" y="20" as="targetPoint" />
            <mxPoint as="offset" />
          </mxGeometry>
        </mxCell>
        <mxCell id="kvXipWGZ7Jy9fMiuD0g3-12" value="" style="endArrow=classic;html=1;" parent="1" edge="1">
          <mxGeometry width="50" height="50" relative="1" as="geometry">
            <mxPoint x="500" y="40" as="sourcePoint" />
            <mxPoint x="414" y="200" as="targetPoint" />
          </mxGeometry>
        </mxCell>
        <mxCell id="kvXipWGZ7Jy9fMiuD0g3-13" value="4. &lt;font style=&quot;font-size: 16px;&quot;&gt;redirect(code+uuid)&lt;/font&gt;" style="edgeLabel;html=1;align=center;verticalAlign=middle;resizable=0;points=[];fontSize=16;" parent="kvXipWGZ7Jy9fMiuD0g3-12" vertex="1" connectable="0">
          <mxGeometry x="-0.2311" y="-1" relative="1" as="geometry">
            <mxPoint x="15" y="5" as="offset" />
          </mxGeometry>
        </mxCell>
        <mxCell id="kvXipWGZ7Jy9fMiuD0g3-14" value="1.&amp;nbsp; get url" style="endArrow=classic;html=1;entryX=0.003;entryY=0.217;entryDx=0;entryDy=0;fontSize=15;entryPerimeter=0;" parent="1" target="kvXipWGZ7Jy9fMiuD0g3-3" edge="1">
          <mxGeometry width="50" height="50" relative="1" as="geometry">
            <mxPoint x="460" y="240" as="sourcePoint" />
            <mxPoint x="550" y="240" as="targetPoint" />
          </mxGeometry>
        </mxCell>
        <mxCell id="kvXipWGZ7Jy9fMiuD0g3-15" value="5. redirect(code)" style="endArrow=classic;html=1;fontSize=17;" parent="1" edge="1">
          <mxGeometry x="0.0229" y="13" width="50" height="50" relative="1" as="geometry">
            <mxPoint x="459" y="281" as="sourcePoint" />
            <mxPoint x="679" y="281" as="targetPoint" />
            <Array as="points" />
            <mxPoint as="offset" />
          </mxGeometry>
        </mxCell>
        <mxCell id="kvXipWGZ7Jy9fMiuD0g3-20" value="" style="endArrow=classic;html=1;exitX=0.472;exitY=-0.051;exitDx=0;exitDy=0;exitPerimeter=0;" parent="1" source="kvXipWGZ7Jy9fMiuD0g3-3" target="kvXipWGZ7Jy9fMiuD0g3-6" edge="1">
          <mxGeometry width="50" height="50" relative="1" as="geometry">
            <mxPoint x="770" y="190" as="sourcePoint" />
            <mxPoint x="820" y="140" as="targetPoint" />
          </mxGeometry>
        </mxCell>
        <mxCell id="kvXipWGZ7Jy9fMiuD0g3-21" value="6. getUser(code)" style="text;html=1;align=center;verticalAlign=middle;resizable=0;points=[];autosize=1;fontSize=16;" parent="1" vertex="1">
          <mxGeometry x="630" y="70" width="130" height="20" as="geometry" />
        </mxCell>
        <mxCell id="kvXipWGZ7Jy9fMiuD0g3-25" value="" style="edgeStyle=orthogonalEdgeStyle;rounded=0;orthogonalLoop=1;jettySize=auto;html=1;startArrow=none;startFill=0;endArrow=classic;endFill=1;" parent="1" source="kvXipWGZ7Jy9fMiuD0g3-24" target="kvXipWGZ7Jy9fMiuD0g3-2" edge="1">
          <mxGeometry relative="1" as="geometry" />
        </mxCell>
        <mxCell id="kvXipWGZ7Jy9fMiuD0g3-26" value="2. get uuid" style="edgeLabel;html=1;align=center;verticalAlign=middle;resizable=0;points=[];fontSize=17;" parent="kvXipWGZ7Jy9fMiuD0g3-25" vertex="1" connectable="0">
          <mxGeometry x="-0.3022" y="-1" relative="1" as="geometry">
            <mxPoint as="offset" />
          </mxGeometry>
        </mxCell>
        <mxCell id="kvXipWGZ7Jy9fMiuD0g3-24" value="登录页" style="shape=note;whiteSpace=wrap;html=1;backgroundOutline=1;darkOpacity=0.05;" parent="1" vertex="1">
          <mxGeometry x="260" y="200" width="200" height="190" as="geometry" />
        </mxCell>
        <mxCell id="kvXipWGZ7Jy9fMiuD0g3-34" value="零终端" style="text;html=1;align=center;verticalAlign=middle;resizable=0;points=[];autosize=1;fontSize=17;fontStyle=1" parent="1" vertex="1">
          <mxGeometry x="190" y="315" width="70" height="30" as="geometry" />
        </mxCell>
        <mxCell id="kvXipWGZ7Jy9fMiuD0g3-36" value="服务端" style="text;html=1;align=center;verticalAlign=middle;resizable=0;points=[];autosize=1;fontSize=17;fontStyle=1" parent="1" vertex="1">
          <mxGeometry x="810" y="315" width="70" height="30" as="geometry" />
        </mxCell>
        <mxCell id="kvXipWGZ7Jy9fMiuD0g3-37" value="DB" style="shape=cylinder3;whiteSpace=wrap;html=1;boundedLbl=1;backgroundOutline=1;size=15;fontSize=17;" parent="1" vertex="1">
          <mxGeometry x="685" y="460" width="115" height="60" as="geometry" />
        </mxCell>
        <mxCell id="kvXipWGZ7Jy9fMiuD0g3-38" value="" style="image;html=1;image=img/lib/clip_art/computers/Server_128x128.png;fontSize=17;" parent="1" vertex="1">
          <mxGeometry x="810" y="237.5" width="70" height="70" as="geometry" />
        </mxCell>
        <mxCell id="kvXipWGZ7Jy9fMiuD0g3-39" value="" style="image;html=1;image=img/lib/clip_art/networking/Modem_128x128.png;fontSize=17;" parent="1" vertex="1">
          <mxGeometry x="205" y="230" width="40" height="85" as="geometry" />
        </mxCell>
        <mxCell id="kvXipWGZ7Jy9fMiuD0g3-41" value="" style="edgeStyle=orthogonalEdgeStyle;rounded=0;orthogonalLoop=1;jettySize=auto;html=1;startArrow=none;startFill=0;endArrow=classic;endFill=1;fontSize=17;" parent="1" source="kvXipWGZ7Jy9fMiuD0g3-40" target="kvXipWGZ7Jy9fMiuD0g3-39" edge="1">
          <mxGeometry relative="1" as="geometry" />
        </mxCell>
        <mxCell id="kvXipWGZ7Jy9fMiuD0g3-40" value="" style="aspect=fixed;perimeter=ellipsePerimeter;html=1;align=center;shadow=0;dashed=0;spacingTop=3;image;image=img/lib/active_directory/user_accounts.svg;fontSize=17;" parent="1" vertex="1">
          <mxGeometry x="60" y="248.25" width="50" height="48.5" as="geometry" />
        </mxCell>
        <mxCell id="kvXipWGZ7Jy9fMiuD0g3-42" value="登录" style="text;html=1;align=center;verticalAlign=middle;resizable=0;points=[];autosize=1;fontSize=17;" parent="1" vertex="1">
          <mxGeometry x="116" y="245" width="50" height="30" as="geometry" />
        </mxCell>
        <mxCell id="pXFhUSmdfiJUvDkZyXjP-1" value="" style="endArrow=classic;html=1;" edge="1" parent="1">
          <mxGeometry width="50" height="50" relative="1" as="geometry">
            <mxPoint x="461" y="370" as="sourcePoint" />
            <mxPoint x="680" y="370" as="targetPoint" />
          </mxGeometry>
        </mxCell>
        <mxCell id="pXFhUSmdfiJUvDkZyXjP-3" value="&lt;span style=&quot;font-size: 17px ; background-color: rgb(255 , 255 , 255)&quot;&gt;7. getUserInfo(userid+key)&lt;/span&gt;" style="text;html=1;align=center;verticalAlign=middle;resizable=0;points=[];autosize=1;" vertex="1" parent="1">
          <mxGeometry x="460" y="295" width="220" height="20" as="geometry" />
        </mxCell>
        <mxCell id="pXFhUSmdfiJUvDkZyXjP-5" value="9. getToken(key)" style="text;html=1;align=center;verticalAlign=middle;resizable=0;points=[];autosize=1;strokeWidth=16;fontSize=16;" vertex="1" parent="1">
          <mxGeometry x="505" y="345" width="130" height="20" as="geometry" />
        </mxCell>
        <mxCell id="pXFhUSmdfiJUvDkZyXjP-7" value="" style="endArrow=classic;html=1;fontSize=16;exitX=1.002;exitY=0.634;exitDx=0;exitDy=0;exitPerimeter=0;entryX=-0.01;entryY=0.613;entryDx=0;entryDy=0;entryPerimeter=0;" edge="1" parent="1" source="kvXipWGZ7Jy9fMiuD0g3-24" target="kvXipWGZ7Jy9fMiuD0g3-3">
          <mxGeometry width="50" height="50" relative="1" as="geometry">
            <mxPoint x="560" y="550" as="sourcePoint" />
            <mxPoint x="610" y="500" as="targetPoint" />
          </mxGeometry>
        </mxCell>
      </root>
    </mxGraphModel>
  </diagram>
</mxfile>
